<mxfile host="app.diagrams.net" modified="2023-11-22T20:47:59.227Z" agent="Mozilla/5.0 (Windows NT 10.0; Win64; x64; rv:109.0) Gecko/20100101 Firefox/119.0" etag="Zi8j-FknVtonRgnTETd9" version="22.1.3" type="github">
  <diagram name="Page-1" id="hgfZkdV9wZ3akMF5zYPl">
    <mxGraphModel dx="993" dy="541" grid="1" gridSize="10" guides="1" tooltips="1" connect="1" arrows="1" fold="1" page="1" pageScale="1" pageWidth="1200" pageHeight="1300" math="0" shadow="0">
      <root>
        <mxCell id="0" />
        <mxCell id="1" parent="0" />
        <mxCell id="I33qQPVzpqQPgTHv8uv4-24" style="edgeStyle=orthogonalEdgeStyle;rounded=0;orthogonalLoop=1;jettySize=auto;html=1;exitX=0.338;exitY=0.981;exitDx=0;exitDy=0;entryX=0.5;entryY=0;entryDx=0;entryDy=0;exitPerimeter=0;" edge="1" parent="1" source="I33qQPVzpqQPgTHv8uv4-14" target="I33qQPVzpqQPgTHv8uv4-19">
          <mxGeometry relative="1" as="geometry" />
        </mxCell>
        <mxCell id="I33qQPVzpqQPgTHv8uv4-26" style="edgeStyle=orthogonalEdgeStyle;rounded=0;orthogonalLoop=1;jettySize=auto;html=1;exitX=0.677;exitY=1.012;exitDx=0;exitDy=0;entryX=0.5;entryY=0;entryDx=0;entryDy=0;exitPerimeter=0;" edge="1" parent="1" source="I33qQPVzpqQPgTHv8uv4-14" target="I33qQPVzpqQPgTHv8uv4-20">
          <mxGeometry relative="1" as="geometry" />
        </mxCell>
        <mxCell id="I33qQPVzpqQPgTHv8uv4-14" value="" style="rounded=1;whiteSpace=wrap;html=1;" vertex="1" parent="1">
          <mxGeometry x="240" y="160" width="590" height="120" as="geometry" />
        </mxCell>
        <mxCell id="I33qQPVzpqQPgTHv8uv4-1" value="Dataset Malware" style="rounded=0;whiteSpace=wrap;html=1;" vertex="1" parent="1">
          <mxGeometry x="380" y="60" width="120" height="60" as="geometry" />
        </mxCell>
        <mxCell id="I33qQPVzpqQPgTHv8uv4-2" value="Data Merge" style="rounded=0;whiteSpace=wrap;html=1;" vertex="1" parent="1">
          <mxGeometry x="280" y="200" width="120" height="60" as="geometry" />
        </mxCell>
        <mxCell id="I33qQPVzpqQPgTHv8uv4-4" value="Dataset Cyber-attacks" style="rounded=0;whiteSpace=wrap;html=1;" vertex="1" parent="1">
          <mxGeometry x="580" y="60" width="120" height="60" as="geometry" />
        </mxCell>
        <mxCell id="I33qQPVzpqQPgTHv8uv4-8" value="Data Cleaning" style="rounded=0;whiteSpace=wrap;html=1;" vertex="1" parent="1">
          <mxGeometry x="480" y="200" width="120" height="60" as="geometry" />
        </mxCell>
        <mxCell id="I33qQPVzpqQPgTHv8uv4-10" value="Data Transforming and Split" style="rounded=0;whiteSpace=wrap;html=1;" vertex="1" parent="1">
          <mxGeometry x="680" y="200" width="120" height="60" as="geometry" />
        </mxCell>
        <mxCell id="I33qQPVzpqQPgTHv8uv4-15" value="Data Preprocessing" style="text;html=1;strokeColor=none;fillColor=none;align=center;verticalAlign=middle;whiteSpace=wrap;rounded=0;" vertex="1" parent="1">
          <mxGeometry x="240" y="160" width="140" height="30" as="geometry" />
        </mxCell>
        <mxCell id="I33qQPVzpqQPgTHv8uv4-16" style="edgeStyle=orthogonalEdgeStyle;rounded=0;orthogonalLoop=1;jettySize=auto;html=1;exitX=0.5;exitY=1;exitDx=0;exitDy=0;entryX=0.339;entryY=0;entryDx=0;entryDy=0;entryPerimeter=0;" edge="1" parent="1" source="I33qQPVzpqQPgTHv8uv4-1" target="I33qQPVzpqQPgTHv8uv4-14">
          <mxGeometry relative="1" as="geometry" />
        </mxCell>
        <mxCell id="I33qQPVzpqQPgTHv8uv4-17" style="edgeStyle=orthogonalEdgeStyle;rounded=0;orthogonalLoop=1;jettySize=auto;html=1;entryX=0.679;entryY=0.002;entryDx=0;entryDy=0;entryPerimeter=0;" edge="1" parent="1" source="I33qQPVzpqQPgTHv8uv4-4" target="I33qQPVzpqQPgTHv8uv4-14">
          <mxGeometry relative="1" as="geometry" />
        </mxCell>
        <mxCell id="I33qQPVzpqQPgTHv8uv4-27" style="edgeStyle=orthogonalEdgeStyle;rounded=0;orthogonalLoop=1;jettySize=auto;html=1;exitX=0.5;exitY=1;exitDx=0;exitDy=0;entryX=0.5;entryY=0;entryDx=0;entryDy=0;" edge="1" parent="1" source="I33qQPVzpqQPgTHv8uv4-19" target="I33qQPVzpqQPgTHv8uv4-22">
          <mxGeometry relative="1" as="geometry" />
        </mxCell>
        <mxCell id="I33qQPVzpqQPgTHv8uv4-19" value="Malware Detection Model Training and Perform" style="rounded=0;whiteSpace=wrap;html=1;" vertex="1" parent="1">
          <mxGeometry x="380" y="320" width="120" height="60" as="geometry" />
        </mxCell>
        <mxCell id="I33qQPVzpqQPgTHv8uv4-28" style="edgeStyle=orthogonalEdgeStyle;rounded=0;orthogonalLoop=1;jettySize=auto;html=1;exitX=0.5;exitY=1;exitDx=0;exitDy=0;entryX=0.5;entryY=0;entryDx=0;entryDy=0;" edge="1" parent="1" source="I33qQPVzpqQPgTHv8uv4-20" target="I33qQPVzpqQPgTHv8uv4-22">
          <mxGeometry relative="1" as="geometry">
            <mxPoint x="530" y="440" as="targetPoint" />
          </mxGeometry>
        </mxCell>
        <mxCell id="I33qQPVzpqQPgTHv8uv4-20" value="Cyberattack Detection Model Training and Perform" style="whiteSpace=wrap;html=1;rounded=0;" vertex="1" parent="1">
          <mxGeometry x="580" y="320" width="120" height="60" as="geometry" />
        </mxCell>
        <mxCell id="I33qQPVzpqQPgTHv8uv4-22" value="Performance Evaluation" style="rounded=0;whiteSpace=wrap;html=1;" vertex="1" parent="1">
          <mxGeometry x="475" y="440" width="120" height="60" as="geometry" />
        </mxCell>
      </root>
    </mxGraphModel>
  </diagram>
</mxfile>
